<svg xmlns="http://www.w3.org/2000/svg"
     width="32" height="32" viewBox="0 0 32 32">
  <defs>
    <!-- 金色硬幣漸變 -->
    <radialGradient id="coinGradient" cx="30%" cy="20%" r="80%">
      <stop offset="0%" stop-color="#ffe49a"/>
      <stop offset="45%" stop-color="#f6c24b"/>
      <stop offset="100%" stop-color="#c4861d"/>
    </radialGradient>

    <!-- 內圈光位 -->
    <radialGradient id="innerGlow" cx="30%" cy="25%" r="70%">
      <stop offset="0%" stop-color="#fff7d5" stop-opacity="0.95"/>
      <stop offset="45%" stop-color="#f8cf62" stop-opacity="0.9"/>
      <stop offset="100%" stop-color="#e0a437" stop-opacity="0.95"/>
    </radialGradient>

    <!-- 背景 X：科技藍漸變 -->
    <linearGradient id="XGradient" x1="0" y1="0" x2="0" y2="1">
      <stop offset="0%" stop-color="#44b6ff"/>
      <stop offset="50%" stop-color="#1e88f3"/>
      <stop offset="100%" stop-color="#0b4fba"/>
    </linearGradient>
  </defs>

  <!-- 外圈硬幣 -->
  <circle cx="16" cy="16" r="15" fill="url(#coinGradient)" />
  <!-- 內圈 -->
  <circle cx="16" cy="16" r="11.5" fill="url(#innerGlow)" />

  <!-- 放大 20% 嘅 X 背景 -->
  <path d="M8.8,8.5 L12.3,8.5 L16,13 L19.7,8.5 L23.2,8.5 L18.8,14.5 
           L23.2,23.5 L19.7,23.5 L16,17.8 L12.3,23.5 L8.8,23.5 
           L13.2,14.5 Z"
        fill="url(#XGradient)" opacity="0.95"/>

  <!-- 透明 N：只保留描邊 -->
  <path d="M10.9 21.9 V9.9 H13.5 L18.5 18.5 V9.9 H20.9 V21.9 H18.3
           L13.3 13.3 V21.9 Z"
        fill="none"
        stroke="#2c2c2c"
        stroke-width="0.8"
        stroke-linejoin="round"/>

  <!-- N 少少外光邊，提升立體感 -->
  <path d="M10.9 21.9 V9.9 H13.5 L18.5 18.5 V9.9 H20.9 V21.9 H18.3
           L13.3 13.3 V21.9 Z"
        fill="none"
        stroke="rgba(255,255,255,0.4)"
        stroke-width="0.3"
        stroke-linejoin="round"/>
</svg>